<svg id="Layer_1" enable-background="new 0 0 512 512" height="512" viewBox="0 0 512 512" width="512" xmlns="http://www.w3.org/2000/svg"><g><g clip-rule="evenodd" fill-rule="evenodd"><path d="m96.501 110 13.5-13.75-50-86.25-50.001 86.25 13.5 13.75z" fill="#ff5a58"/><path d="m96.501 110h-73.001v113.765l36.501-33.762 36.5 33.762z" fill="#e8eaf0"/><path d="m60.001 190.003-36.501 33.762-13.5 12.487 13.5 13.75h73.001l13.5-13.75-13.5-12.487z" fill="#ff5a58"/><path d="m96.501 250.002h-73.001v251.998h73.001v-85.742-100.004z" fill="#e8eaf0"/><path d="m96.501 250.002v66.252h318.998v-66.252l-13.5-13.75h-145.999-145.999z" fill="#ff5a58"/><path d="m96.501 316.254h318.998v100.003h-318.998z" fill="#cfd3df"/><path d="m415.499 416.258h-318.998v85.742h49.498v-30c0-11 9-20 20-20s20 9 20 20v30h50.001v-30c0-11 9-20 20-20s20 9 20 20v30h50.002v-30c0-11 9-20 20-20s20 9 20 20v30h49.497z" fill="#b6bccf"/><g fill="#8690af"><path d="m185.998 502v-30c0-11-9-20-20-20s-20 9-20 20v30z"/><path d="m236 472v30h40v-30c0-11-9-20-20-20s-20 9-20 20z"/><path d="m326.002 472v30h40v-30c0-11-9-20-20-20s-20 9-20 20z"/></g><path d="m256 151.749h57.75v42.251h-57.75z" fill="#60a4ff"/><path d="m401.999 96.25 13.5 13.75h73.001l13.5-13.75-50.001-86.25z" fill="#ff5a58"/><path d="m415.499 110v113.765l36.5-33.762 36.501 33.762v-113.765z" fill="#e8eaf0"/><path d="m451.999 190.003-36.5 33.762-13.5 12.487 13.5 13.75h73.001l13.5-13.75-13.5-12.487z" fill="#ff5a58"/><path d="m488.5 250.002h-73.001v66.252 100.004 85.742h73.001z" fill="#e8eaf0"/></g><g><path d="m502 492h-3.5v-237.91l10.636-10.833c1.894-1.93 2.926-4.544 2.861-7.246-.065-2.703-1.222-5.265-3.207-7.101l-10.29-9.518v-105.303l10.636-10.833c3.151-3.21 3.772-8.129 1.516-12.021l-50-86.25c-1.789-3.085-5.085-4.984-8.651-4.984s-6.863 1.899-8.651 4.984l-50 86.25c-2.256 3.893-1.636 8.812 1.516 12.021l10.636 10.833v105.304l-7.415 6.859h-132.087v-22.251h47.75c5.523 0 10-4.478 10-10v-42.251c0-5.522-4.477-10-10-10h-57.75c-5.523 0-10 4.478-10 10v74.502h-132.084l-7.415-6.859v-105.304l10.636-10.833c3.151-3.21 3.772-8.129 1.516-12.021l-50-86.25c-1.789-3.085-5.085-4.984-8.651-4.984s-6.864 1.899-8.653 4.984l-50 86.25c-2.256 3.893-1.636 8.812 1.516 12.021l10.635 10.833v105.304l-10.29 9.518c-1.985 1.836-3.142 4.397-3.207 7.101-.065 2.702.967 5.316 2.861 7.246l10.636 10.832v237.91h-3.5c-5.523 0-10 4.478-10 10s4.477 10 10 10h492c5.523 0 10-4.478 10-10s-4.477-10-10-10zm-236-330.25h37.75v22.251h-37.75zm153.695 78.252-3.342-3.404 35.647-32.972 35.647 32.972-3.342 3.404zm32.304-210.063 37.53 64.739-5.226 5.322h-64.609l-5.226-5.322zm-26.5 90.062h53.001v80.893l-19.71-18.231c-3.832-3.547-9.748-3.547-13.58 0l-19.71 18.231v-80.893zm-27.696 126.251 7.696 7.839v52.164h-29.498v-10.001c0-5.522-4.477-10-10-10s-10 4.478-10 10v10.001h-35v-10.001c0-5.522-4.477-10-10-10s-10 4.478-10 10v10.001h-35v-10.001c0-5.522-4.477-10-10-10s-10 4.478-10 10v10.001h-35.001v-10.001c0-5.522-4.477-10-10-10s-10 4.478-10 10v10.001h-35v-10.001c0-5.522-4.477-10-10-10s-10 4.478-10 10v10.001h-29.498v-52.165l7.696-7.839h283.605zm-370.107-6.25-3.342-3.404 35.647-32.972 35.647 32.972-3.342 3.404zm32.305-210.063 37.53 64.739-5.226 5.322h-64.609l-5.226-5.322zm-26.501 90.062h53.001v80.893l-19.71-18.231c-3.832-3.547-9.748-3.547-13.58 0l-19.711 18.231zm0 371.999v-231.998h53.001v231.998zm122.499 0v-20c0-5.514 4.486-10 10-10s10 4.486 10 10v20zm90.001 0v-20c0-5.514 4.486-10 10-10s10 4.486 10 10v20zm90.002 0v-20c0-5.514 4.486-10 10-10s10 4.486 10 10v20zm40 0v-20c0-16.542-13.458-30-30-30s-30 13.458-30 30v20h-30.002v-20c0-16.542-13.458-30-30-30s-30 13.458-30 30v20h-30.002v-20c0-16.542-13.458-30-30-30s-30 13.458-30 30v20h-29.498v-65.742h104.496c5.523 0 10-4.478 10-10s-4.477-10-10-10h-104.495v-80.003h298.998v80.003h-104.503c-5.523 0-10 4.478-10 10s4.477 10 10 10h104.502v65.742zm49.497 0v-231.998h53.001v231.998z"/><path d="m70.008 150.002c0-5.522-4.477-10-10-10h-.007c-5.523 0-9.997 4.478-9.997 10s4.481 10 10.004 10 10-4.478 10-10z"/><path d="m60.001 285.002h-.007c-5.523 0-9.997 4.478-9.997 10s4.481 10 10.004 10 10-4.478 10-10-4.477-10-10-10z"/><path d="m60.001 330.002h-.007c-5.523 0-9.997 4.478-9.997 10s4.481 10 10.004 10 10-4.478 10-10-4.477-10-10-10z"/><path d="m60.001 375.001h-.007c-5.523 0-9.997 4.478-9.997 10s4.481 10 10.004 10 10-4.478 10-10-4.477-10-10-10z"/><path d="m60.001 420.001h-.007c-5.523 0-9.997 4.478-9.997 10s4.481 10 10.004 10 10-4.478 10-10-4.477-10-10-10z"/><path d="m451.999 160.002c5.523 0 9.997-4.478 9.997-10s-4.481-10-10.004-10-10 4.478-10 10 4.477 10 10 10z"/><path d="m451.999 285.002c-5.523 0-10 4.478-10 10s4.477 10 10 10h.007c5.523 0 9.997-4.478 9.997-10s-4.481-10-10.004-10z"/><path d="m451.999 330.002c-5.523 0-10 4.478-10 10s4.477 10 10 10h.007c5.523 0 9.997-4.478 9.997-10s-4.481-10-10.004-10z"/><path d="m451.999 375.001c-5.523 0-10 4.478-10 10s4.477 10 10 10h.007c5.523 0 9.997-4.478 9.997-10s-4.481-10-10.004-10z"/><path d="m451.999 420.001c-5.523 0-10 4.478-10 10s4.477 10 10 10h.007c5.523 0 9.997-4.478 9.997-10s-4.481-10-10.004-10z"/><path d="m145.999 346.258c-5.523 0-10 4.478-10 10v20.001c0 5.522 4.477 10 10 10s10-4.478 10-10v-20.001c0-5.522-4.477-10-10-10z"/><path d="m200.999 346.258c-5.523 0-10 4.478-10 10v20.001c0 5.522 4.477 10 10 10s10-4.478 10-10v-20.001c0-5.522-4.477-10-10-10z"/><path d="m256 346.258c-5.523 0-10 4.478-10 10v20.001c0 5.522 4.477 10 10 10s10-4.478 10-10v-20.001c0-5.522-4.477-10-10-10z"/><path d="m311.001 386.259c5.523 0 10-4.478 10-10v-20.001c0-5.522-4.477-10-10-10s-10 4.478-10 10v20.001c0 5.523 4.477 10 10 10z"/><path d="m366.001 386.259c5.523 0 10-4.478 10-10v-20.001c0-5.522-4.477-10-10-10s-10 4.478-10 10v20.001c0 5.523 4.477 10 10 10z"/><path d="m256 406.257h-.008c-5.523 0-9.996 4.478-9.996 10s4.481 10 10.004 10 10-4.478 10-10-4.477-10-10-10z"/></g></g></svg>