<svg height="507pt" viewBox="-48 0 507 507.41282" width="507pt" xmlns="http://www.w3.org/2000/svg"><path d="m302.28125 196.773438-201.527344 16.867187c-.011718.257813.015625.511719.085938.757813-.085938.082031-.085938.082031 0 .167968-.085938.328125-.085938.675782 0 1.007813-.011719.089843.019531.183593.082031.25-1.089844-1.257813-2.179687-2.601563-3.1875-4.027344-10.40625-14.617187-17.925781-31.082031-22.160156-48.515625-25.179688-92.328125 33.574219-109.113281 33.574219-109.113281-5.792969-5.792969-19.390626-3.609375-27.445313-1.679688-3.273437.753907-5.542969 1.511719-6.042969 1.59375.835938-1.007812 1.59375-1.929687 2.515625-2.851562 11.921875-14.347657 28.496094-24.058594 46.835938-27.449219 8.105469-1.414062 16.394531-1.441406 24.507812-.082031 6.347657.878906 12.539063 2.65625 18.382813 5.289062 11.734375-10.296875 26.136718-17.074219 41.546875-19.558593 50.949219-7.804688 104.835937 34.328124 117.929687 86.703124 16.367188 65.386719-22.496094 99.378907-25.097656 100.640626zm0 0" fill="#624421"/><path d="m277.101562 196.773438-179.367187 15.023437c-10.40625-14.617187-17.925781-31.082031-22.160156-48.515625-25.179688-92.328125 33.574219-109.113281 33.574219-109.113281-5.792969-5.792969-19.390626-3.609375-27.445313-1.679688-1.101563-.605469-2.292969-1.03125-3.527344-1.257812 11.921875-14.347657 28.496094-24.058594 46.835938-27.449219 6.113281.917969 12.074219 2.667969 17.710937 5.207031 2.265625-1.933593 4.53125-3.695312 6.796875-5.289062 6.347657.878906 12.539063 2.65625 18.382813 5.289062 11.734375-10.296875 26.136718-17.074219 41.546875-19.558593 45.023437 8.652343 81.085937 42.367187 92.75 86.703124 16.367187 65.386719-22.496094 99.378907-25.097657 100.640626zm0 0" fill="#825a2c"/><path d="m142.722656 347.9375 25.179688 151.082031h-150.832032c-2.277343.011719-4.46875-.902343-6.066406-2.53125-1.59375-1.628906-2.464844-3.832031-2.410156-6.113281 3.359375-79.402344 53.550781-142.4375 134.128906-142.4375zm0 0" fill="#607d8b"/><path d="m402.667969 490.375c.101562 2.277344-.738281 4.5-2.328125 6.136719s-3.785156 2.542969-6.066406 2.507812h-159.222657l24.84375-148.984375.335938-2.097656c80.578125 0 138.574219 63.035156 142.4375 142.4375zm0 0" fill="#37474f"/><path d="m377.488281 490.375c.101563 2.277344-.742187 4.5-2.328125 6.136719-1.589844 1.636719-3.785156 2.542969-6.066406 2.507812h-134.042969l24.84375-148.984375c67.398438 11.414063 114.152344 69.332032 117.59375 140.339844zm0 0" fill="#607d8b"/><path d="m260.230469 373.117188v125.902343h-117.507813v-125.902343s9.0625-88.84375 30.46875-59.550782c7.105469 9.890625 15.882813 18.46875 25.933594 25.347656 1.457031.839844 3.246094.839844 4.703125 0 10.050781-6.878906 18.828125-15.457031 25.933594-25.347656 21.402343-29.292968 30.46875 59.550782 30.46875 59.550782zm0 0" fill="#545c60"/><path d="m260.230469 314.363281v33.574219l-58.753907 8.394531-58.753906-8.394531v-33.574219c16.535156 12.421875 36.847656 8.394531 58.753906 8.394531 19.136719 0 37.183594 5.707032 52.375-3.945312 2.183594-1.425781 4.28125-2.855469 6.378907-4.449219zm0 0" fill="#ffe0b2"/><path d="m260.230469 294.640625v19.722656c-2.097657 1.59375-4.195313 3.023438-6.378907 4.449219-34.332031 21.890625-78.660156 20.117188-111.128906-4.449219v-19.722656c16.535156 12.421875 36.847656 11.328125 58.753906 11.328125 18.695313-.53125 36.855469-6.351562 52.375-16.785156 2.183594-1.425782 4.28125 7.050781 6.378907 5.457031zm0 0" fill="#dfc49c"/><path d="m184.6875 213.640625c-.007812 23.175781-18.792969 41.960937-41.964844 41.96875-4.246094.007813-8.464844-.644531-12.507812-1.929687-15.511719-4.851563-26.828125-18.226563-29.039063-34.328126-.085937-.097656-.085937-.242187 0-.335937v-.085937c-.085937-1.007813-.167969-1.929688-.253906-2.9375-.023437-.023438-.035156-.050782-.035156-.082032 0-.035156.011719-.0625.035156-.085937-.0625-.066407-.09375-.160157-.082031-.25-.085938-.332031-.085938-.679688 0-1.007813-.085938-.085937-.085938-.085937 0-.167968v-1.679688c-.085938-.09375-.085938-.238281 0-.335938.507812-17.871093 12.308594-33.449218 29.375-38.777343 4.042968-1.285157 8.261718-1.9375 12.507812-1.929688 23.171875.007813 41.957032 18.792969 41.964844 41.964844zm0 0" fill="#00838f"/><path d="m302.113281 212.382812c.085938.097657.085938.242188 0 .335938v1.679688c-.082031 1.511718-.167969 3.019531-.335937 4.53125v.085937c.085937.09375.085937.238281 0 .335937-2.835938 20.773438-20.582032 36.257813-41.546875 36.257813-4.296875 0-8.570313-.648437-12.675781-1.929687-17.441407-5.539063-29.292969-21.734376-29.292969-40.039063 0-18.300781 11.851562-34.496094 29.292969-40.035156 4.105468-1.28125 8.378906-1.929688 12.675781-1.929688 22.679687-.011719 41.25 18.035157 41.882812 40.707031zm0 0" fill="#00838f"/><path d="m159.507812 213.640625c.003907 18.304687-11.847656 34.5-29.292968 40.039063-15.511719-4.851563-26.828125-18.226563-29.039063-34.328126-.085937-.097656-.085937-.242187 0-.335937v-.085937c-.085937-1.007813-.167969-1.929688-.253906-2.9375-.023437-.023438-.035156-.050782-.035156-.082032 0-.035156.011719-.0625.035156-.085937-.0625-.066407-.09375-.160157-.082031-.25-.085938-.332031-.085938-.679688 0-1.007813-.085938-.085937-.085938-.085937 0-.167968v-1.679688c-.085938-.09375-.085938-.238281 0-.335938.507812-17.871093 12.308594-33.449218 29.375-38.777343 17.445312 5.539062 29.296875 21.734375 29.292968 40.035156zm0 0" fill="#00bcd4"/><path d="m276.933594 212.382812c.085937.097657.085937.242188 0 .335938v1.679688c-.085938 1.511718-.167969 3.019531-.335938 4.53125v.085937c.085938.09375.085938.238281 0 .335937-2.210937 16.101563-13.527344 29.476563-29.042968 34.328126-17.441407-5.539063-29.292969-21.734376-29.292969-40.039063 0-18.300781 11.851562-34.496094 29.292969-40.035156 17.066406 5.328125 28.867187 20.90625 29.378906 38.777343zm0 0" fill="#00bcd4"/><path d="m301.777344 219.351562c-.898438 9.527344-3.042969 18.894532-6.378906 27.863282-6.914063 18.863281-19.125 35.332031-35.167969 47.425781-2.097657 1.59375-4.195313 3.019531-6.378907 4.445313-15.652343 9.96875-33.820312 15.269531-52.375 15.277343-4.238281.019531-8.476562-.261719-12.675781-.839843-16.730469-2.21875-32.601562-8.726563-46.078125-18.882813-.589844-.421875-1.175781-.839844-1.679687-1.261719-12.984375-10.195312-23.34375-23.34375-30.214844-38.355468-1.175781-2.519532-2.265625-5.121094-3.273437-7.808594-3.335938-8.96875-5.480469-18.335938-6.378907-27.863282 2.210938 16.101563 13.527344 29.476563 29.039063 34.328126 4.042968 1.285156 8.261718 1.9375 12.507812 1.929687 23.171875-.007813 41.957032-18.792969 41.964844-41.96875.300781-2.527344 1.890625-4.71875 4.199219-5.789063 3.894531-1.953124 8.238281-2.851562 12.589843-2.601562 16.785157 0 16.785157 8.390625 16.785157 8.390625 0 18.304687 11.851562 34.5 29.292969 40.039063 4.105468 1.28125 8.378906 1.929687 12.675781 1.929687 2.28125.019531 4.554687-.175781 6.796875-.585937 18.167968-2.957032 32.273437-17.433594 34.75-35.671876zm0 0" fill="#dfc49c"/><path d="m267.027344 255.023438c-7.242188 15.628906-18.226563 29.238281-31.976563 39.617187-2.097656 1.59375-4.199219 3.019531-6.378906 4.445313-12.058594 7.707031-25.675781 12.640624-39.871094 14.4375-16.730469-2.21875-32.601562-8.726563-46.078125-18.882813-.589844-.421875-1.175781-.839844-1.679687-1.261719-12.984375-10.195312-23.34375-23.34375-30.214844-38.355468 2.214844.40625 4.460937.601562 6.714844.585937 4.296875 0 8.570312-.648437 12.671875-1.929687 4.042968 1.285156 8.261718 1.9375 12.507812 1.929687 23.171875-.007813 41.957032-18.792969 41.964844-41.96875.300781-2.527344 1.890625-4.71875 4.199219-5.789063 2.308593 1.070313 3.894531 3.261719 4.195312 5.789063.007813 23.175781 18.792969 41.960937 41.96875 41.96875 4.242188.007813 8.460938-.644531 12.503907-1.929687 4.105468 1.28125 8.378906 1.929687 12.675781 1.929687 2.28125.019531 4.554687-.175781 6.796875-.585937zm0 0" fill="#ffe0b2"/><g fill="#dfc49c"><path d="m105.453125 141.625c-1.3125 2.871094-2.460937 5.8125-3.4375 8.816406-.671875 1.992188-2.722656 3.179688-4.785156 2.769532.585937-15.78125 3.523437-16.117188 3.523437-16.117188.335938.335938.589844.671875.925782 1.007812 1.191406 1.242188 2.453124 2.417969 3.773437 3.523438zm0 0"/><path d="m130.214844 173.605469c-17.066406 5.328125-28.867188 20.90625-29.375 38.777343-.085938.097657-.085938.242188 0 .335938-.070313.304688-.097656.613281-.085938.921875-1.679687-15.023437-2.683594-27.191406-3.1875-36.84375 6.113282-3.378906 12.988282-5.140625 19.976563-5.121094 4.296875 0 8.570312.648438 12.671875 1.929688zm0 0"/><path d="m188.886719 207.851562c-2.308594 1.070313-3.898438 3.261719-4.199219 5.789063.003906-2.5625-.25-5.121094-.753906-7.636719 1.746094.324219 3.421875.949219 4.953125 1.847656zm0 0"/><path d="m302.28125 196.773438-.082031.082031v12.589843c0 1.007813 0 1.929688-.085938 2.9375-.421875-15.078124-8.917969-28.769531-22.242187-35.839843 1.289062-13.632813.324218-27.386719-2.855469-40.707031-.96875-3.660157-2.261719-7.226563-3.859375-10.660157 2.285156-4.304687 3.738281-9.003906 4.28125-13.847656.101562-1.480469.984375-2.796875 2.316406-3.453125 1.328125-.65625 2.90625-.554688 4.144532.261719 9.335937 6.632812 15.859374 16.511719 18.300781 27.699219 4.191406 20.09375 4.21875 40.832031.082031 60.9375zm0 0"/></g><path d="m279.871094 176.542969c-6.046875-3.21875-12.792969-4.890625-19.640625-4.867188-4.296875 0-8.570313.648438-12.675781 1.929688-17.441407 5.539062-29.292969 21.734375-29.292969 40.035156 0 0 0-8.390625-16.785157-8.390625-2.566406-.050781-5.132812.203125-7.636718.753906-1.746094.324219-3.421875.949219-4.953125 1.847656-1.53125-.898437-3.207031-1.523437-4.953125-1.847656-3.632813-19.902344-20.980469-34.355468-41.210938-34.328125-4.246094-.007812-8.464844.644531-12.507812 1.929688-4.101563-1.28125-8.375-1.929688-12.671875-1.929688-6.988281-.019531-13.863281 1.742188-19.976563 5.121094-.550781-7.851563-.664062-15.726563-.335937-23.585937 2.0625.410156 4.113281-.777344 4.785156-2.769532.976563-3.003906 2.125-5.945312 3.4375-8.816406 4.761719 4.445312 10.097656 8.226562 15.867187 11.25 1.089844.546875 2.363282.59375 3.492188.125 1.128906-.464844 1.996094-1.402344 2.382812-2.558594 6.066407-21.046875 22.210938-37.691406 43.058594-44.402344 1.929688-.589843 3.945313-1.09375 6.042969-1.511718 28.789063-5.707032 45.742187 24.089844 53.550781 43.308594 1.507813 3.863281 2.769532 7.304687 3.605469 9.988281.40625 1.265625 1.386719 2.265625 2.644531 2.695312 1.253906.429688 2.640625.238281 3.738282-.511719 13.710937-8.800781 25.132812-20.742187 33.320312-34.832031 1.597656 3.433594 2.890625 7 3.859375 10.660157 3.179687 13.320312 4.144531 27.074218 2.855469 40.707031zm0 0" fill="#ffe0b2"/><path d="m193.839844 206.003906c-.507813 2.515625-.761719 5.074219-.757813 7.636719-.300781-2.527344-1.886719-4.71875-4.195312-5.789063 1.53125-.898437 3.207031-1.523437 4.953125-1.847656zm0 0" fill="#dfc49c"/><path d="m260.230469 373.117188v76.296874c-12.929688 23.105469-33.808594 40.730469-58.753907 49.605469-24.945312-8.875-45.824218-26.5-58.753906-49.605469v-76.296874c6.378906 23.414062 16.679688 45.582031 30.46875 65.554687 7.105469 9.890625 15.882813 18.46875 25.933594 25.347656 1.457031.839844 3.246094.839844 4.703125 0 10.050781-6.878906 18.828125-15.457031 25.933594-25.347656 13.785156-19.972656 24.089843-42.140625 30.46875-65.554687zm0 0" fill="#9e9e9e"/><path d="m260.230469 347.9375v25.179688c-6.378907 23.414062-16.683594 45.582031-30.46875 65.554687l-.082031-.085937-11.417969-57.074219 6.546875-6.546875c.46875-.4375.714844-1.0625.664062-1.699219-.046875-.636719-.386718-1.214844-.914062-1.574219l-21.90625-14.605468c-.347656-.234376-.757813-.355469-1.175782-.335938v-.417969zm0 0" fill="#f5f5f5"/><path d="m229.761719 438.671875c-7.105469 9.890625-15.882813 18.46875-25.933594 25.347656-1.457031.839844-3.246094.839844-4.703125 0-10.050781-6.878906-18.828125-15.457031-25.933594-25.347656l.082032-.085937 11.414062-57.074219 15.277344 15.277343c.398437.402344.945312.628907 1.511718.628907.566407 0 1.109376-.226563 1.511719-.628907l15.273438-15.277343 11.417969 57.074219zm0 0" fill="#f44335"/><path d="m201.476562 356.332031v.417969c-.417968-.019531-.832031.101562-1.175781.335938l-21.90625 14.605468c-.53125.359375-.867187.9375-.914062 1.574219-.050781.636719.195312 1.261719.660156 1.699219l6.546875 6.546875-11.414062 57.074219-.082032.085937c-13.789062-19.972656-24.089844-42.140625-30.46875-65.554687v-25.179688zm0 0" fill="#f5f5f5"/><path d="m224.808594 374.964844-21.820313 21.824218c-.402343.402344-.945312.628907-1.511719.628907-.566406 0-1.113281-.226563-1.511718-.628907l-21.824219-21.824218c-.464844-.4375-.710937-1.0625-.660156-1.699219.046875-.636719.382812-1.214844.914062-1.574219l21.90625-14.605468c.71875-.449219 1.632813-.449219 2.351563 0l21.90625 14.605468c.527344.359375.867187.9375.914062 1.574219.050782.636719-.195312 1.261719-.664062 1.699219zm0 0" fill="#c81e1e"/><path d="m394.3125 507.414062h-377.277344c-4.601562-.011718-9-1.890624-12.191406-5.207031-3.148438-3.242187-4.8203125-7.644531-4.621094-12.160156v-.007813c3.777344-88.609374 62.375-150.496093 142.5-150.496093.398438 0 .792969.027343 1.1875.085937l57.566406 8.222656 57.566407-8.222656c.390625-.058594.789062-.085937 1.1875-.085937 83.113281 0 146.558593 63.28125 150.859375 150.460937.234375 4.503906-1.410156 8.90625-4.539063 12.15625-3.191406 3.34375-7.613281 5.242188-12.238281 5.253906zm-377.3125-16.828124 377.3125.039062c-3.816406-77.523438-59.933594-133.992188-133.496094-134.292969l-58.15625 8.308594c-.785156.113281-1.585937.113281-2.375 0l-58.152344-8.308594c-71.410156.292969-121.648437 54.164063-125.132812 134.253907zm0 0"/><path d="m260.230469 398.296875c-4.636719 0-8.394531-3.757813-8.394531-8.390625v-95.265625c0-4.636719 3.757812-8.394531 8.394531-8.394531s8.394531 3.757812 8.394531 8.394531v95.265625c0 4.632812-3.757812 8.390625-8.394531 8.390625zm0 0"/><path d="m142.722656 398.296875c-4.636718 0-8.394531-3.757813-8.394531-8.390625v-95.265625c0-4.636719 3.757813-8.394531 8.394531-8.394531 4.636719 0 8.394532 3.757812 8.394532 8.394531v95.265625c0 4.632812-3.757813 8.390625-8.394532 8.390625zm0 0"/><path d="m142.722656 507.414062c-4.636718 0-8.394531-3.757812-8.394531-8.394531v-151.082031c0-4.636719 3.757813-8.394531 8.394531-8.394531 4.636719 0 8.394532 3.757812 8.394532 8.394531v151.082031c0 4.636719-3.757813 8.394531-8.394532 8.394531zm0 0"/><path d="m260.230469 507.414062c-4.636719 0-8.394531-3.757812-8.394531-8.394531v-151.082031c0-4.636719 3.757812-8.394531 8.394531-8.394531s8.394531 3.757812 8.394531 8.394531v151.082031c0 4.636719-3.757812 8.394531-8.394531 8.394531zm0 0"/><path d="m201.476562 322.757812c-23.8125.027344-46.933593-7.996093-65.605468-22.769531-16.449219-12.953125-28.984375-30.207031-36.214844-49.855469-4.832031-13.019531-7.304688-26.796874-7.296875-40.6875 0-4.636718 3.761719-8.394531 8.394531-8.394531 4.636719 0 8.394532 3.757813 8.394532 8.394531-.007813 11.898438 2.105468 23.699219 6.246093 34.851563 6.152344 16.738281 16.824219 31.4375 30.828125 42.476563 29.757813 23.527343 71.15625 25.621093 103.140625 5.222656 17.578125-11.316406 30.988281-28.054688 38.1875-47.679688 4.144531-11.160156 6.261719-22.96875 6.253907-34.871094 0-4.636718 3.757812-8.394531 8.394531-8.394531 4.632812 0 8.390625 3.757813 8.390625 8.394531.007812 13.890626-2.460938 27.667969-7.292969 40.6875-8.484375 23.070313-24.261719 42.742188-44.9375 56.035157-17 10.816406-36.730469 16.570312-56.882813 16.589843zm0 0"/><path d="m302.199219 144.394531c-2.210938.039063-4.34375-.808593-5.917969-2.355469-1.578125-1.546874-2.472656-3.660156-2.476562-5.867187v-.328125c0-4.636719 3.757812-8.394531 8.394531-8.394531 4.632812 0 8.390625 3.757812 8.390625 8.394531.015625 4.667969-3.726563 8.476562-8.390625 8.550781zm0 0"/><path d="m302.199219 217.839844c-4.636719 0-8.394531-3.757813-8.394531-8.394532v-12.589843c0-4.636719 3.757812-8.394531 8.394531-8.394531 4.632812 0 8.390625 3.757812 8.390625 8.394531v12.589843c0 4.636719-3.757813 8.394532-8.390625 8.394532zm0 0"/><path d="m201.476562 473.070312c-2.453124 0-4.851562-.707031-6.910156-2.042968-42.53125-27.703125-59.296875-93.105469-59.984375-95.875-.980469-4.4375 1.75-8.851563 6.160157-9.953125 4.40625-1.105469 8.894531 1.5 10.117187 5.878906.15625.605469 15.257813 59.328125 50.613281 84.351563 35.351563-25.011719 50.460938-83.746094 50.613282-84.351563 1.226562-4.378906 5.710937-6.984375 10.121093-5.878906 4.40625 1.101562 7.136719 5.515625 6.15625 9.953125-.6875 2.769531-17.449219 68.171875-59.972656 95.867187-2.058594 1.335938-4.460937 2.046875-6.914063 2.050781zm0 0"/><path d="m201.476562 507.414062c-.902343-.003906-1.800781-.148437-2.65625-.4375-26.902343-9.46875-49.425781-28.429687-63.34375-53.328124-1.515624-2.585938-1.535156-5.785157-.046874-8.394532 1.484374-2.605468 4.246093-4.21875 7.246093-4.238281 2.996094-.015625 5.777344 1.570313 7.292969 4.15625 11.878906 21.371094 31.132812 37.679687 54.164062 45.886719 3.902344 1.304687 6.285157 5.246094 5.625 9.304687-.660156 4.0625-4.167968 7.046875-8.28125 7.050781zm0 0"/><path d="m201.476562 507.414062c-4.113281-.007812-7.617187-2.988281-8.273437-7.050781-.660156-4.058593 1.71875-7.996093 5.617187-9.300781 23.03125-8.207031 42.285157-24.519531 54.164063-45.886719 2.339844-4.003906 7.484375-5.347656 11.484375-3.007812 4.003906 2.339843 5.347656 7.484375 3.007812 11.484375-13.917968 24.894531-36.441406 43.855468-63.34375 53.328125-.855468.285156-1.753906.433593-2.65625.433593zm0 0"/><path d="m173.277344 446.980469c-.554688 0-1.109375-.054688-1.652344-.167969-4.546875-.910156-7.492188-5.332031-6.582031-9.878906l11.414062-57.074219c.945313-4.507813 5.347657-7.410156 9.863281-6.507813 4.515626.90625 7.457032 5.277344 6.597657 9.804688l-11.417969 57.074219c-.78125 3.921875-4.222656 6.746093-8.222656 6.75zm0 0"/><path d="m229.671875 446.980469c-3.996094-.003907-7.441406-2.824219-8.222656-6.746094l-11.417969-57.074219c-.617188-2.953125.394531-6.011718 2.652344-8.011718 2.261718-2 5.421875-2.632813 8.277344-1.65625 2.855468.976562 4.964843 3.40625 5.53125 6.371093l11.414062 57.074219c.910156 4.546875-2.035156 8.96875-6.582031 9.878906-.542969.109375-1.097657.164063-1.652344.164063zm0 0"/><path d="m201.476562 405.8125c-2.78125.011719-5.453124-1.09375-7.417968-3.0625l-21.886719-21.886719c-2.230469-2.226562-3.339844-5.335937-3.023437-8.472656.316406-3.136719 2.023437-5.964844 4.65625-7.699219l21.851562-14.566406c3.53125-2.375 8.15625-2.367188 11.679688.027344l21.84375 14.5625c2.621093 1.742187 4.316406 4.566406 4.625 7.695312.308593 3.132813-.800782 6.234375-3.027344 8.453125l-21.882813 21.882813c-1.964843 1.972656-4.636719 3.078125-7.417969 3.066406zm-12.003906-31.390625 12.003906 12.007813 12.003907-12.007813-12.003907-8zm30.378906 4.246094.046876.039062zm-36.722656-.015625-.046875.03125zm14.855469-14.558594.058594.039062zm7.027344-.023438-.058594.039063zm0 0"/><path d="m100.921875 224.386719c-2.886719-.003907-5.570313-1.484375-7.121094-3.917969-12.554687-16.269531-21.523437-35.011719-26.320312-54.992188-13.886719-50.910156-2.949219-80.492187 8.671875-96.34375 2.230468-3.039062 4.707031-5.890624 7.410156-8.515624-1.804688.433593-3.597656.941406-5.335938 1.515624-3.558593 1.179688-7.46875-.144531-9.582031-3.242187s-1.914062-7.222656.484375-10.105469c37.546875-45.046875 82.226563-34.695312 97.285156-29.417968 24.269532-19.042969 56.546876-24.464844 85.703126-14.386719 40.921874 13.9375 72.203124 47.363281 83.402343 89.121093 16.042969 64.066407-18.1875 101.976563-27.925781 109.171876-3.339844 2.742187-8.214844 2.515624-11.285156-.523438-1.582032-1.5625-2.472656-3.6875-2.480469-5.90625s.867187-4.351562 2.4375-5.921875c.492187-.492187 1.035156-.925781 1.621094-1.296875 1.492187-1.226562 36.3125-31.6875 21.355469-91.449219-9.699219-36.167969-36.78125-65.121093-72.222657-77.207031-25.355469-8.777344-53.472656-3.285156-73.660156 14.386719-2.566406 2.1875-6.191406 2.636719-9.214844 1.140625-20.652343-8.960938-44.445312-6.800782-63.148437 5.734375 5.242187.332031 10.214844 2.449219 14.082031 6.003906 2.105469 2.101563 2.9375 5.160156 2.191406 8.039063-.746093 2.882812-2.960937 5.152343-5.820312 5.96875-2.007813.605468-50.3125 16.226562-27.785157 98.835937 4.230469 17.980469 12.300782 34.832031 23.65625 49.398437 1.292969 1.53125 1.996094 3.472657 1.984376 5.476563v.039063c.003906 4.632812-3.75 8.390624-8.382813 8.394531zm0 0"/><path d="m302.222656 205.191406c-2.671875 0-5.183594-1.273437-6.765625-3.425781s-2.046875-4.925781-1.25-7.476563c4.910157-26.230468 4.726563-59.144531-9.796875-74.792968-3.417968 12.246094-13.53125 28.777344-39.695312 47.320312-3.277344 2.308594-7.457032 2.921875-11.257813 1.652344-3.804687-1.269531-6.777343-4.273438-8.007812-8.089844-4.046875-12.605468-19.523438-53.296875-47.503907-47.621094-20.570312 4.511719-37 19.949219-42.789062 40.195313-1.113281 3.511719-3.71875 6.351563-7.117188 7.769531-3.398437 1.417969-7.25 1.269532-10.53125-.40625-8.101562-4.238281-15.472656-9.753906-21.820312-16.339844-.105469-.113281-.679688-.726562-.78125-.84375-3.054688-3.433593-2.90625-8.652343.335938-11.910156 1.511718-1.523437 3.5625-2.386718 5.707031-2.402344 2.148437-.011718 4.210937.832032 5.738281 2.339844.128906.128906.710938.761719.835938.902344 4.011718 4.144531 8.5 7.800781 13.371093 10.890625 8.535157-23.875 28.914063-41.558594 53.753907-46.652344 26.976562-5.398437 50.941406 14.542969 64.925781 53.476563 25.066406-19.039063 29-33.628906 29.5-39.222656.378906-4.4375 3.082031-8.347657 7.101562-10.265626 3.945313-1.953124 8.632813-1.652343 12.296875.789063 33.648438 22.1875 25.441406 79.761719 22.125 96.875-.34375 1.777344-1.167968 3.421875-2.386718 4.753906-1.585938 1.589844-3.742188 2.484375-5.988282 2.484375zm-67.214844-52.066406-.015624.007812zm-109.875-7.761719.015626.007813zm0 0"/><path d="m142.722656 264.003906c-27.8125 0-50.363281-22.546875-50.363281-50.363281 0-27.8125 22.550781-50.359375 50.363281-50.359375s50.359375 22.546875 50.359375 50.359375c-.03125 27.800781-22.558593 50.332031-50.359375 50.363281zm0-83.933594c-18.542968 0-33.574218 15.03125-33.574218 33.570313 0 18.542969 15.03125 33.574219 33.574218 33.574219 18.542969 0 33.574219-15.03125 33.574219-33.574219-.019531-18.53125-15.039063-33.554687-33.574219-33.570313zm0 0"/><path d="m260.230469 264.003906c-27.8125 0-50.359375-22.546875-50.359375-50.363281 0-27.8125 22.546875-50.359375 50.359375-50.359375s50.359375 22.546875 50.359375 50.359375c-.03125 27.800781-22.558594 50.332031-50.359375 50.363281zm0-83.933594c-18.542969 0-33.574219 15.03125-33.574219 33.570313 0 18.542969 15.03125 33.574219 33.574219 33.574219s33.574219-15.03125 33.574219-33.574219c-.019532-18.53125-15.039063-33.554687-33.574219-33.570313zm0 0"/><path d="m218.261719 222.035156c-4.027344 0-7.488281-2.863281-8.246094-6.820312-2.640625-1.3125-5.601563-1.859375-8.539063-1.574219-2.9375-.285156-5.898437.261719-8.542968 1.574219-.808594 4.257812-4.722656 7.199218-9.035156 6.789062-4.3125-.40625-7.605469-4.03125-7.601563-8.363281 0-.6875.285156-16.785156 25.179687-16.785156 24.894532 0 25.179688 16.097656 25.179688 16.785156 0 4.636719-3.757812 8.394531-8.394531 8.394531zm0 0"/><path d="m100.746094 222.035156c-4.273438-.003906-7.863282-3.21875-8.335938-7.46875-8.589844-77.335937-1.082031-84.796875 7.34375-85.8125 3.527344-.425781 6.9375 1.414063 8.519532 4.589844 1.582031 3.179688.996093 7.007812-1.46875 9.566406-.941407 3.058594-3.566407 17.074219 2.296874 69.800782.507813 4.609374-2.8125 8.757812-7.417968 9.273437-.3125.03125-.625.050781-.9375.050781zm2.351562-76.886718c-.429687.125-.867187.21875-1.308594.273437.441407-.050781.882813-.140625 1.308594-.269531zm0 0"/><path d="m189.246094 176.921875c-.324219 0-.644532-.019531-.96875-.058594-2.210938-.25-4.230469-1.375-5.613282-3.117187-1.386718-1.742188-2.019531-3.964844-1.761718-6.179688l1.34375-11.71875-11.835938-4.507812c-3.925781-1.507813-6.578125-5.207032-6.746094-9.410156l-.300781-8.789063c-.082031-2.222656.730469-4.386719 2.246094-6.015625 1.519531-1.625 3.625-2.582031 5.851563-2.65625 2.238281-.132812 4.433593.65625 6.074218 2.1875s2.578125 3.667969 2.597656 5.914062l.167969 4.570313 12.503907 4.765625c4.464843 1.714844 7.210937 6.222656 6.691406 10.972656l-1.917969 16.609375c-.488281 4.230469-4.070313 7.429688-8.332031 7.433594zm0 0" fill="#f44335"/></svg>